<svg width="981" height="295" viewBox="0 0 981 295" fill="none" xmlns="http://www.w3.org/2000/svg">
<path d="M249.228 261.311C252.01 261.311 254.265 263.566 254.265 266.347L254.265 283.136C254.265 285.918 252.01 288.173 249.228 288.173L11.2466 288.173C8.46494 288.173 6.20996 285.918 6.20996 283.136L6.20996 266.347C6.20996 263.566 8.46494 261.311 11.2466 261.311L249.228 261.311Z" stroke="white" stroke-width="12"/>
<ellipse cx="130.238" cy="25.6248" rx="13.431" ry="12.5916" stroke="white" stroke-width="12"/>
<path d="M130.237 38.2163C61.6229 38.2163 6 96.3761 6 168.12C6.41972 182.04 10.533 220.879 23.6283 264.865" stroke="white" stroke-width="12"/>
<path d="M130.238 38.2163C93.7219 51.2276 57.626 96.3761 57.626 168.12C57.8415 182.04 60.9837 220.375 75.4924 264.865" stroke="white" stroke-width="12"/>
<path d="M130.237 38.2163C166.753 51.2276 202.849 96.3761 202.849 168.12C202.633 182.04 199.491 220.375 184.982 264.865" stroke="white" stroke-width="12"/>
<path d="M130.237 38.2163C198.852 38.2163 254.475 96.3761 254.475 168.12C254.055 182.04 249.942 220.879 236.846 264.865" stroke="white" stroke-width="12"/>
<path d="M39.1582 79.3491C81.5499 91.9407 178.086 92.7802 221.317 79.3491" stroke="white" stroke-width="12"/>
<path d="M6 165.392C16.8256 168.607 35.5067 171.056 58.0453 172.697M254.474 165.392C243.684 168.744 225.441 171.207 203.478 172.821" stroke="white" stroke-width="12"/>
<path d="M285.151 6.00244C288.353 5.94291 290.415 8.01207 291.202 8.91064C292.217 10.069 293.012 11.4636 293.631 12.7202C294.901 15.2988 296.075 18.6464 297.103 22.0571C297.746 24.1936 298.361 26.4557 298.932 28.7212C300.032 27.2333 301.15 25.7625 302.252 24.3647C304.317 21.7444 306.429 19.246 308.324 17.3521C309.26 16.4165 310.283 15.4861 311.326 14.7485C312.083 14.2135 313.97 12.9361 316.401 12.936C318.958 12.936 320.927 14.2001 322.161 15.6685C323.25 16.9644 323.808 18.4332 324.126 19.5308C324.772 21.7566 324.982 24.4646 325.033 27.0669C325.138 32.4151 324.583 39.3538 323.934 45.9946C323.264 52.8431 322.509 59.2725 322.089 64.3276C321.951 65.9833 321.862 67.3661 321.823 68.4644C325.177 70.1292 330.02 73.1848 334.265 78.2642C340.729 86 345.33 97.886 342.054 115.041C341.945 115.608 341.976 115.907 341.994 116.016C342.01 116.111 342.031 116.16 342.065 116.214C342.183 116.404 342.538 116.807 343.629 117.487C344.167 117.822 344.701 118.117 345.42 118.526C346.058 118.888 346.909 119.377 347.705 119.943C349.098 120.934 352.162 123.461 351.852 127.857C350.673 144.556 342.78 156.299 329.64 162.946C317.001 169.339 300.128 170.713 281.124 168.759C280.868 168.733 280.161 168.809 279.192 169.453C278.241 170.085 277.523 170.956 277.187 171.693C277.062 171.966 277.016 172.145 277.002 172.248C277.188 172.437 277.764 172.891 279.246 173.32C280.207 173.598 291.427 176.767 303.62 180.543C309.715 182.431 316.103 184.486 321.611 186.42C326.977 188.305 331.938 190.221 334.898 191.855C339.797 194.557 348.969 199.495 356.176 205.307C359.756 208.194 363.294 211.64 365.523 215.518C367.836 219.542 369.044 224.671 366.517 229.883C364.354 234.343 360.805 237.066 356.487 237.993C352.552 238.837 348.541 238.072 345.179 236.98C338.499 234.811 331.549 230.346 327.5 227.888C317.956 222.094 311.978 219.465 304.491 219.743C301.317 219.86 293.673 219.898 284.958 219.897C288.656 221.618 292.109 223.488 294.931 225.503C299.819 228.995 308.543 235.484 315.099 242.929C318.363 246.637 321.414 250.938 323.036 255.544C324.712 260.306 324.954 265.761 321.905 270.889C319.219 275.406 315.436 278.114 311.024 278.98C306.89 279.791 302.919 278.844 299.796 277.6C293.619 275.14 288.527 270.618 287.201 269.292C284.587 266.678 282.481 264.07 280.824 262.176C279.094 260.199 277.561 258.633 275.548 257.212C271.523 254.371 264.73 251.518 249.281 249.141C234.049 246.798 219.784 245.393 209.003 242.608C199.435 240.136 190.873 236.187 185.924 228.162C183.94 228.377 181.256 228.718 177.974 229.147C170.625 230.107 160.566 231.457 149.931 232.542C139.052 233.65 127.068 235.467 117.183 238.005C112.231 239.277 107.979 240.686 104.716 242.195C101.279 243.783 99.6827 245.149 99.1416 245.931C95.8302 250.72 92.5745 255.063 89.376 259.005L87.5752 261.225H69.1045L67.8809 256.837C62.4265 237.284 59.1025 210.097 58.0605 185.136C57.5379 172.616 57.5845 160.529 58.2471 150.107C58.9016 139.812 60.1812 130.706 62.3164 124.387L63.1807 121.83L65.668 120.78C86.7094 111.903 110.99 104.603 131.657 105.846C165.998 107.912 178.646 106.21 185.401 104.427C191.775 102.745 195.657 99.7465 208.362 100.29C211.814 100.291 215.116 100.342 218.268 99.8315C221.393 99.3252 223.637 98.362 225.152 96.8472C230.743 91.2567 235.252 83.9473 240.442 74.604C241.589 72.5394 243.496 67.7783 246.239 60.9868C248.875 54.4618 252.106 46.5397 255.719 38.8677C259.307 31.2461 263.405 23.5831 267.845 17.6763C270.067 14.7196 272.52 12.006 275.207 9.94678C277.886 7.89451 281.129 6.24121 284.838 6.01416L285.151 6.00244Z" fill="black" stroke="white" stroke-width="12"/>
<path d="M322.989 112.182C322.989 120.605 318.333 127.434 312.589 127.434C306.846 127.434 300.11 120.605 300.11 112.182C300.11 103.758 306.846 96.9297 312.589 96.9297C318.333 96.9297 322.989 103.758 322.989 112.182Z" fill="white"/>
<ellipse cx="317.442" cy="114.262" rx="2.07983" ry="6.93277" transform="rotate(4.95274 317.442 114.262)" fill="black"/>
<path d="M537.88 6.58691C542.298 6.58691 545.88 10.1686 545.88 14.5869V191.229C545.88 210.315 543.114 227.189 537.582 241.85C532.326 256.51 523.751 268.266 511.856 277.118C499.962 285.693 484.61 290.949 465.8 292.886C448.456 294.671 427.584 293.046 403.185 288.012C399.519 287.255 396.922 284.002 396.922 280.259V228.345C396.922 223.043 401.988 219.219 407.141 220.465C428.503 225.631 444.46 226.536 455.012 223.179C467.183 219.029 473.269 208.379 473.269 191.229V14.5869C473.269 10.1686 476.85 6.58691 481.269 6.58691H537.88ZM848.669 6.58691C853.087 6.58691 856.669 10.1686 856.669 14.5869V191.229C856.669 210.315 853.903 227.189 848.371 241.85C843.115 256.51 834.54 268.266 822.646 277.118C810.751 285.693 795.399 290.949 776.589 292.886C759.245 294.671 738.373 293.046 713.974 288.012C710.308 287.255 707.711 284.002 707.711 280.259V228.345C707.711 223.043 712.777 219.219 717.93 220.465C739.292 225.631 755.249 226.536 765.801 223.179C777.972 219.029 784.058 208.379 784.058 191.229V14.5869C784.058 10.1686 787.639 6.58691 792.058 6.58691H848.669ZM662.189 6.58691C666.608 6.58703 670.189 10.1687 670.189 14.5869V280.736C670.189 285.155 666.608 288.736 662.189 288.736H605.577C601.159 288.736 597.577 285.155 597.577 280.736V14.5869C597.577 10.1686 601.159 6.58691 605.577 6.58691H662.189ZM972.979 6.58691C977.398 6.58703 980.979 10.1687 980.979 14.5869V280.736C980.979 285.155 977.398 288.736 972.979 288.736H916.367C911.949 288.736 908.367 285.155 908.367 280.736V14.5869C908.367 10.1686 911.949 6.58691 916.367 6.58691H972.979Z" fill="white"/>
</svg>
