<svg width="1200" height="630" viewBox="0 0 1200 630" fill="none" xmlns="http://www.w3.org/2000/svg">
  <defs>
    <pattern id="grid" width="48" height="48" patternUnits="userSpaceOnUse">
      <path d="M48 0H0V48" stroke="#202522" stroke-width="1"/>
    </pattern>
    <linearGradient id="glow" x1="760" y1="80" x2="1120" y2="550" gradientUnits="userSpaceOnUse">
      <stop stop-color="#13A653" stop-opacity=".14"/>
      <stop offset="1" stop-color="#13A653" stop-opacity="0"/>
    </linearGradient>
  </defs>

  <rect width="1200" height="630" fill="#0D0F0E"/>
  <rect width="1200" height="630" fill="url(#grid)" opacity=".55"/>
  <rect x="1" y="1" width="1198" height="628" stroke="#303632" stroke-width="2"/>
  <circle cx="1000" cy="154" r="320" fill="url(#glow)"/>

  <image href="jiji_logo.svg" x="64" y="48" width="233" height="70"/>

  <g transform="translate(936 61)">
    <rect width="200" height="42" rx="21" fill="#131714" stroke="#344039"/>
    <circle cx="24" cy="21" r="5" fill="#19C467"/>
    <text x="42" y="27" fill="#C8CEC9" font-family="monospace" font-size="15" letter-spacing="1.5">OPEN SOURCE</text>
  </g>

  <text x="64" y="245" fill="#F6F7F6" font-family="Arial, sans-serif" font-size="78" font-weight="750" letter-spacing="-3">
    Deploy containers
  </text>
  <text x="64" y="329" fill="#F6F7F6" font-family="Arial, sans-serif" font-size="78" font-weight="750" letter-spacing="-3">
    anywhere.
  </text>
  <text x="68" y="393" fill="#AEB5B0" font-family="Arial, sans-serif" font-size="24">
    Zero-downtime rollouts. Private networking. Servers you control.
  </text>

  <g transform="translate(765 175)">
    <rect width="371" height="298" rx="8" fill="#111412" stroke="#3A423D"/>
    <rect width="371" height="48" rx="8" fill="#181C19"/>
    <path d="M0 48H371" stroke="#3A423D"/>
    <circle cx="24" cy="24" r="5" fill="#13A653"/>
    <circle cx="43" cy="24" r="5" fill="#4B544E"/>
    <circle cx="62" cy="24" r="5" fill="#4B544E"/>
    <text x="347" y="29" fill="#7E8982" font-family="monospace" font-size="12" text-anchor="end">DEPLOYMENT</text>

    <text x="25" y="88" fill="#7E8982" font-family="monospace" font-size="15">$</text>
    <text x="47" y="88" fill="#F1F4F2" font-family="monospace" font-size="15">jiji deploy -e production</text>

    <circle cx="31" cy="128" r="8" fill="#13A653"/>
    <path d="M27 128L30 131L35 125" stroke="#071109" stroke-width="2" stroke-linecap="round" stroke-linejoin="round"/>
    <text x="52" y="133" fill="#C8CEC9" font-family="monospace" font-size="14">Build image</text>
    <text x="341" y="133" fill="#7E8982" font-family="monospace" font-size="13" text-anchor="end">done</text>

    <circle cx="31" cy="169" r="8" fill="#13A653"/>
    <path d="M27 169L30 172L35 166" stroke="#071109" stroke-width="2" stroke-linecap="round" stroke-linejoin="round"/>
    <text x="52" y="174" fill="#C8CEC9" font-family="monospace" font-size="14">Push registry</text>
    <text x="341" y="174" fill="#7E8982" font-family="monospace" font-size="13" text-anchor="end">done</text>

    <circle cx="31" cy="210" r="8" fill="#13A653"/>
    <path d="M27 210L30 213L35 207" stroke="#071109" stroke-width="2" stroke-linecap="round" stroke-linejoin="round"/>
    <text x="52" y="215" fill="#C8CEC9" font-family="monospace" font-size="14">Health-gated rollout</text>
    <text x="341" y="215" fill="#7E8982" font-family="monospace" font-size="13" text-anchor="end">healthy</text>

    <rect x="24" y="246" width="323" height="30" rx="4" fill="#11291C"/>
    <text x="185.5" y="266" fill="#48E48C" font-family="monospace" font-size="13" text-anchor="middle">DEPLOYMENT COMPLETE</text>
  </g>

  <path d="M64 526H1136" stroke="#303632"/>
  <circle cx="72" cy="566" r="5" fill="#13A653"/>
  <text x="90" y="573" fill="#AEB5B0" font-family="monospace" font-size="18">JIJI.RUN</text>
  <text x="1136" y="573" fill="#AEB5B0" font-family="monospace" font-size="18" text-anchor="end">CLOUD VMS · BARE METAL · HOME LABS</text>
</svg>
